<svg xmlns:xlink="http://www.w3.org/1999/xlink" xmlns="http://www.w3.org/2000/svg" class="svg-icon service-icon" width="64"  height="64" ><defs><symbol xmlns="http://www.w3.org/2000/svg" viewBox="0 0 64 64" id="special-price-1">
    <title>Special Price</title>
    <desc>A line styled icon from Orion Icon Library.</desc>
    <circle data-name="layer2" cx="21" cy="23" r="5" fill="none" stroke="#202020" stroke-miterlimit="10" stroke-linejoin="round" stroke-linecap="round" style=""></circle>
    <circle data-name="layer2" cx="43" cy="41" r="5" fill="none" stroke="#202020" stroke-miterlimit="10" stroke-linejoin="round" stroke-linecap="round" style=""></circle>
    <path data-name="layer2" fill="none" stroke="#202020" stroke-miterlimit="10" d="M46 18L18 46" stroke-linejoin="round" stroke-linecap="round" style=""></path>
    <path data-name="layer1" fill="none" stroke="#202020" stroke-miterlimit="10" d="M32 4.5L38 2l4.5 4.6H49l2.5 5.9 5.9 2.5v6.5L62 26l-2.5 6 2.5 6-4.6 4.5V49l-5.9 2.5-2.5 5.9h-6.5L38 62l-6-2.5-6 2.5-4.5-4.6H15l-2.5-5.9L6.6 49v-6.5L2 38l2.5-6L2 26l4.6-4.5V15l5.9-2.5L15 6.6h6.5L26 2l6 2.5z" stroke-linejoin="round" stroke-linecap="round" style=""></path>
  </symbol></defs>
                <use xlink:href="#special-price-1" stroke="#495057" stroke-width="3px"> </use>
              </svg>